PathFileType	4	(X/Y/Z)	C:/Users/opensim2020/Desktop/walking_exp_matlab/subject01_walking15_straight_04.trc																																																																																																																															
DataRate	CameraRate	NumFrames	NumMarkers	Units	OrigDataRate	OrigDataStartFrame	OrigNumFrames																																																																																																																											
100	100	6	43	mm	100	2094	105																																																																																																																											
Frame#	Time	LFHD			RFHD			LBHD			RBHD			C7			T10			CLAV			STRN			RBAK			LSHO			LUPA			LELB			LFRM			LWRA			LWRB			LFIN			RSHO			RUPA			RELB			RFRM			RWRA			RWRB			RFIN			LASI			RASI			LPSI			RPSI			LTHI			LKNE			LTIB			LANK			LHEE			LTOE			RTHI			RKNE			RTIB			RANK			RHEE			RTOE			*39			*40			*41			*42		
		X1	Y1	Z1	X2	Y2	Z2	X3	Y3	Z3	X4	Y4	Z4	X5	Y5	Z5	X6	Y6	Z6	X7	Y7	Z7	X8	Y8	Z8	X9	Y9	Z9	X10	Y10	Z10	X11	Y11	Z11	X12	Y12	Z12	X13	Y13	Z13	X14	Y14	Z14	X15	Y15	Z15	X16	Y16	Z16	X17	Y17	Z17	X18	Y18	Z18	X19	Y19	Z19	X20	Y20	Z20	X21	Y21	Z21	X22	Y22	Z22	X23	Y23	Z23	X24	Y24	Z24	X25	Y25	Z25	X26	Y26	Z26	X27	Y27	Z27	X28	Y28	Z28	X29	Y29	Z29	X30	Y30	Z30	X31	Y31	Z31	X32	Y32	Z32	X33	Y33	Z33	X34	Y34	Z34	X35	Y35	Z35	X36	Y36	Z36	X37	Y37	Z37	X38	Y38	Z38	X39	Y39	Z39	X40	Y40	Z40	X41	Y41	Z41	X42	Y42	Z42	X43	Y43	Z43
																																																																																																																																		
14	0.13	-669.93414	1640.30054	979.29285	-634.12408	1651.12451	1087.68457	-782.93793	1602.78076	1013.45825	-748.75769	1613.17871	1128.47095	-820.74231	1413.25879	1055.88538	-874.93842	1122.90527	1075.90283	-678.58057	1340.00745	1053.99731	-644.77911	1182.73889	1054.04822	-885.27423	1229.68494	1143.73779	-743.59454	1374.88354	894.9848	-815.14954	1200.97546	813.26178	-865.16217	1063.39624	817.58771	-872.88599	953.21649	785.70587	-844.04059	814.56488	787.86334	-898.79572	834.00806	774.85895	-887.37286	754.39911	751.54224	-737.42761	1384.37231	1203.49768	-809.4826	1199.44055	1316.80969	-804.24402	1072.33789	1334.5835	-714.97107	985.58069	1359.31396	-584.05182	942.15784	1332.58386	-616.46649	915.43103	1370.22363	-536.71356	883.78766	1374.93262	-700.88477	915.72974	982.79181	-715.7204	913.39343	1199.14929	-889.10712	923.58466	1016.71661	-896.66296	936.81879	1158.33435	-635.93652	605.90112	922.45441	-600.63977	478.62518	942.26971	-599.5318	288.89423	935.71173	-559.06384	72.54781	989.61182	-595.44708	37.26361	1046.50806	-414.47815	68.35179	982.96606	-857.64624	600.54462	1263.58862	-902.08911	442.57059	1249.0083	-1033.42566	321.44644	1258.07031	-1154.25146	148.84607	1223.29333	-1211.30334	141.13702	1171.84839	-1059.99915	40.0733	1225.26538	-648.49048	1683.93994	1065.59241	-1973.14807	1023.53485	3101.88428	-2012.50464	1021.98145	3140.73584	NaN	NaN	NaN
15	0.14	-655.73981	1639.86853	976.93665	-620.24011	1650.61169	1085.54431	-768.7735	1601.83215	1010.89081	-734.95331	1612.26196	1126.02539	-806.54883	1411.91943	1053.34827	-859.8736	1121.49036	1074.37231	-663.64594	1339.15735	1051.85217	-629.25031	1182.21362	1052.41101	-870.21594	1227.8446	1141.172	-728.66064	1373.10925	892.44263	-799.70557	1198.56775	811.71295	-850.71796	1061.48132	816.88422	-859.60785	951.36511	785.48584	-832.25909	812.43274	788.02997	-886.90594	832.44458	775.15149	-876.38794	752.65656	752.10547	-723.0354	1383.47095	1201.45081	-795.97687	1198.34949	1314.52502	-790.40997	1071.16467	1332.56091	-700.72852	985.01727	1357.3219	-569.60016	942.21643	1330.68872	-601.8667	915.36896	1368.35242	-521.82135	884.19574	1373.10913	-684.90637	915.14917	982.32977	-699.41766	911.94208	1198.10706	-873.573	921.98474	1015.10779	-880.78131	934.44171	1157.17175	-616.43848	605.47144	922.14856	-583.35925	477.27237	942.18994	-587.6579	289.2735	937.30713	-558.17841	72.93422	990.30719	-594.13104	38.18903	1046.47363	-411.94522	62.91882	984.41595	-839.18152	598.14044	1263.08044	-883.22321	440.1774	1249.75964	-1019.06647	323.83383	1258.63867	-1145.74011	155.47289	1225.01514	-1202.56067	151.07646	1173.17322	-1059.04382	40.15177	1225.47693	-634.73199	1683.22034	1063.47766	-1973.1051	1023.45099	3101.94531	-2012.55347	1022.10822	3140.66797	NaN	NaN	NaN
16	0.15	-641.30341	1640.00549	974.77814	-606.2475	1650.74939	1083.43457	-754.3797	1601.62634	1008.22308	-720.96655	1611.95288	1123.28845	-792.21326	1411.31323	1050.68054	-844.10828	1120.86121	1072.98706	-648.65588	1338.76038	1049.69788	-613.90796	1182.16626	1050.63916	-855.19952	1226.50952	1138.37646	-713.61115	1371.62109	889.87085	-784.22064	1196.27759	810.00464	-835.79126	1059.57947	816.06873	-845.7478	949.41565	785.31653	-819.66028	810.25696	788.30676	-874.17438	830.71851	775.47107	-864.38623	750.82281	752.84387	-708.66583	1383.05408	1199.62463	-782.56226	1197.39722	1311.93091	-776.69415	1070.02307	1330.26819	-686.91614	984.16071	1355.20251	-555.74292	941.62061	1328.83594	-588.06207	914.43982	1366.06824	-508.00873	883.76733	1371.26208	-669.2146	915.09216	981.41779	-683.41608	910.724	1196.93396	-857.95099	921.09454	1013.79456	-865.16901	932.29413	1156.32336	-598.70544	605.57312	921.21216	-564.68207	477.79794	942.61493	-574.45837	291.05634	937.32501	-553.58459	73.82156	989.99146	-591.94122	39.6468	1045.26843	-407.87308	58.97918	985.54285	-819.62805	595.62695	1262.47864	-862.46979	437.17023	1250.27966	-1002.57416	326.2363	1259.20898	-1135.21448	162.71288	1226.67041	-1191.08191	162.4886	1174.66528	-1058.92053	40.1851	1225.63464	-620.96234	1682.96191	1061.29004	-1973.10193	1023.4809	3101.98853	-2012.44263	1022.08466	3140.76099	NaN	NaN	NaN
17	0.16	-626.80652	1640.42395	972.36969	-592.02545	1651.13721	1081.10901	-739.88708	1601.9436	1005.49792	-706.76404	1612.22375	1120.53015	-777.42987	1411.40027	1048.12732	-829.30322	1121.16199	1071.78455	-633.82739	1338.8606	1047.61682	-598.56635	1182.5553	1048.98877	-840.25311	1225.99182	1135.77161	-698.67529	1370.34949	887.42389	-768.56952	1194.18982	808.26215	-820.3584	1057.62708	815.33936	-831.15149	947.53442	785.09485	-806.06006	808.22913	788.69208	-860.47003	829.02942	775.8028	-851.36438	749.19891	753.45087	-694.19727	1382.90771	1198.01685	-769.08539	1196.76758	1309.34656	-763.21454	1069.2063	1327.5592	-673.6358	983.14355	1352.86914	-542.59595	940.35089	1327.01807	-575.11804	913.28998	1364.17407	-495.27078	882.39301	1369.68933	-653.55255	915.19946	980.2121	-667.84558	909.73517	1195.40881	-842.0885	921.19495	1012.87042	-849.68506	930.40106	1155.81445	-583.69952	606.65369	920.09698	-546.60889	479.99741	943.64172	-560.98877	292.87177	936.90192	-549.26819	74.70831	988.88538	-590.15497	40.97581	1044.25354	-404.93109	53.08087	986.60803	-799.03308	592.79236	1261.70435	-839.53571	434.29089	1251.72131	-983.91675	328.80899	1260.03198	-1122.75134	170.57431	1228.34326	-1176.88782	175.0125	1175.76953	-1059.13647	40.45366	1225.30286	-606.90729	1683.54773	1058.97363	-1973.16174	1023.54242	3101.84106	-2012.49121	1022.07556	3140.80444	NaN	NaN	NaN
18	0.17	-612.32477	1640.63098	969.87299	-577.7038	1651.54028	1078.52808	-725.44891	1602.33484	1002.77478	-692.49078	1612.77539	1117.85571	-762.27228	1411.7959	1045.9187	-814.34552	1121.2644	1070.73364	-619.07855	1339.30847	1045.81592	-583.31696	1183.08081	1047.38525	-825.50995	1226.09888	1133.7738	-683.85315	1369.39001	885.19629	-752.63715	1192.36487	806.69037	-804.58862	1055.82764	814.63397	-815.86053	945.85797	784.85333	-791.37732	806.41064	789.11194	-845.77972	827.36212	776.35864	-837.01074	747.35931	754.23816	-679.51215	1382.88782	1196.34351	-755.72681	1196.49377	1306.66016	-749.91766	1068.95288	1324.8623	-660.87915	982.08228	1350.25964	-530.20007	938.45093	1325.22046	-563.11877	911.42517	1362.08411	-483.68057	880.12958	1368.25378	-637.76599	915.63495	978.61908	-652.40955	908.98114	1193.79797	-826.48975	921.83807	1012.25641	-834.1626	928.76862	1155.46228	-568.12531	608.09619	919.9574	-530.30371	482.1727	945.20392	-548.2901	294.20706	935.09393	-546.65729	74.17083	989.00452	-588.7359	41.9048	1043.70776	-402.68597	47.75949	987.20258	-777.57971	589.77966	1261.15674	-815.37866	431.28107	1252.76636	-963.14636	331.09732	1260.84863	-1108.19714	178.30493	1229.8252	-1160.64246	187.00807	1176.54309	-1056.55908	42.14064	1224.43762	-592.58289	1683.99097	1056.31274	-1973.20227	1023.57404	3101.8374	-2012.49536	1022.14258	3140.79346	NaN	NaN	NaN
19	0.18	-597.93835	1640.5647	967.2663	-563.42877	1651.85107	1075.85779	-711.15735	1602.58472	1000.21265	-678.24469	1613.28235	1115.19946	-747.15918	1412.21765	1043.98047	-799.44873	1121.35803	1069.68237	-604.47479	1339.78162	1044.03833	-568.10461	1183.646	1045.90527	-810.99695	1226.56287	1132.42212	-669.27405	1368.72046	883.26349	-736.69482	1190.8822	805.20868	-788.64966	1054.4209	814.03448	-799.82367	944.37402	784.65271	-775.69135	804.92456	789.44354	-830.02008	825.89014	776.26532	-821.4306	745.40173	755.19476	-664.71985	1382.95776	1194.69177	-742.25415	1196.70874	1304.2561	-736.70245	1069.15454	1322.18457	-648.64056	981.16217	1347.71814	-518.43323	935.88959	1323.3418	-551.98987	908.91492	1359.67883	-473.08694	877.00153	1366.80298	-622.37244	916.3385	976.98438	-637.15741	908.36462	1191.99658	-811.03564	922.42133	1011.75946	-818.83557	927.6441	1155.24438	-552.71399	608.92297	919.6629	-516.35266	482.69238	945.7287	-537.13702	293.86975	934.01245	-544.41016	73.92477	989.40076	-587.63324	42.59101	1043.65735	-400.9093	44.93666	987.08136	-755.60101	586.76208	1260.75598	-790.32495	428.51556	1253.57751	-941.03082	333.10266	1261.31738	-1092.04358	186.02974	1230.89905	-1143.2937	198.2951	1177.20776	-1050.44495	46.19925	1224.32031	-577.91071	1684.60071	1053.53601	-1973.1311	1023.51428	3101.93408	-2012.53528	1022.16278	3140.65186	NaN	NaN	NaN
